<svg width="201" height="54" viewBox="0 0 201 54" fill="none" xmlns="http://www.w3.org/2000/svg">
<path d="M31.8776 11.4613C31.1549 10.8927 30.3882 10.3677 29.5849 9.90474C28.1579 9.07358 26.6172 8.42105 24.9885 7.96537C23.943 7.67373 22.8682 7.46594 21.7604 7.34564C21.0671 7.26909 20.3591 7.23264 19.6401 7.23264C17.938 7.23264 16.2836 7.44772 14.7099 7.85236C14.7062 7.85236 14.7062 7.85236 14.7062 7.85236C11.3974 8.70539 8.42243 10.3896 6.01969 12.6607C5.961 12.7154 5.90597 12.7701 5.85095 12.8284L5.51346 13.1638C5.45477 13.2184 5.39975 13.2731 5.34472 13.3315C3.05937 15.7156 1.36828 18.672 0.509895 21.9602L7.32194 15.1906C7.51269 14.9974 7.70344 14.8079 7.89786 14.6183C10.8435 11.8295 14.7943 10.0688 19.1449 9.94849L2.61917 26.3675L0 28.9704C0.117386 30.0713 0.326479 31.1394 0.623612 32.1784L2.89429 29.9219L22.7215 10.2183C24.4456 10.5281 26.078 11.1041 27.5783 11.8952L4.57805 34.7521L2.57515 36.7425C3.04103 37.5408 3.56926 38.3027 4.14152 39.0209L6.07838 37.0888L29.9334 13.3861L31.8776 11.4613Z" fill="#B9B9BE"/>
<path d="M31.5365 38.9736C28.5762 41.8425 24.5667 43.6579 20.1464 43.7819L36.6684 27.3628L39.2876 24.76C39.1702 23.6591 38.9611 22.5909 38.664 21.552L36.3933 23.8049L16.5625 43.5121C14.8384 43.2023 13.2023 42.6263 11.7056 41.8389L34.7096 18.9783L36.7125 16.9879C36.2466 16.1896 35.7184 15.4277 35.1461 14.7095L33.2092 16.6343L7.41003 42.2727C8.13269 42.8414 8.89937 43.3663 9.70273 43.8293C11.1297 44.6604 12.6667 45.313 14.2918 45.7686C15.3372 46.0603 16.4157 46.2681 17.5236 46.3884C18.2169 46.4649 18.9212 46.5014 19.6402 46.5014C21.3459 46.5014 23.004 46.2863 24.585 45.878C27.9709 45.0068 31.0082 43.2642 33.4367 40.9093L33.7742 40.5739C36.1439 38.1606 37.8973 35.1422 38.7741 31.7775L31.9693 38.5397C31.8263 38.6856 31.6832 38.8314 31.5365 38.9736Z" fill="#7E223E"/>
<path d="M54.8228 9.93698C60.4647 9.93698 66.2313 13.4913 66.2313 21.3034C66.2313 28.9005 60.4353 32.1814 54.7605 32.1814C52.6035 32.1814 50.4429 31.6601 48.6564 30.7706V27.2492C50.1971 28.412 52.2037 28.9333 54.2359 28.9333C58.2124 28.9333 62.1595 27.3111 62.684 22.6231H52.1083V19.499H62.6217C62.0054 14.9349 58.2123 13.1887 54.2983 13.1887C52.3541 13.1887 50.1677 13.6772 48.6564 14.7526V11.3514C50.4759 10.4255 52.6328 9.93698 54.8228 9.93698Z" fill="#7E223E"/>
<path d="M66.7194 35.0329V28.595H69.3092C72.0531 23.6299 72.7611 16.6453 72.7611 10.335H86.6676V28.595H89.4115V35.0329H86.2054V31.7811H69.9255V35.0329H66.7194ZM73.1316 28.595H83.1497V13.5539H76.2129C75.8755 18.8836 75.1675 24.7053 73.1316 28.595Z" fill="#7E223E"/>
<path d="M90.7432 31.7811L99.8699 10.335H103.725L112.819 31.7811H109.118L107.207 27.1551H96.385L94.4739 31.7811H90.7432ZM97.5883 24.0929H105.974L102.181 14.9319C102.056 14.5929 101.935 14.2575 101.781 13.7362C101.627 14.2575 101.502 14.5929 101.381 14.9319L97.5883 24.0929Z" fill="#7E223E"/>
<path d="M123.996 9.93698C126.153 9.93698 128.281 10.4255 130.13 11.3478V14.749C128.618 13.7064 126.615 13.1559 124.579 13.1559C120.449 13.1559 116.161 15.5765 116.131 21.2451C116.131 26.5164 120.508 28.9662 124.642 28.9662C126.861 28.9662 128.864 28.3829 130.284 27.3111V30.7743C128.464 31.6638 126.307 32.1851 124.025 32.1851C118.446 32.1851 112.525 28.5688 112.555 21.2451C112.558 13.6116 118.321 9.93698 123.996 9.93698Z" fill="#7E223E"/>
<path d="M48.6673 43.6487L50.6298 39.0372H51.4589L53.4141 43.6487H52.618L52.2072 42.6535H49.8815L49.4706 43.6487H48.6673ZM50.1419 41.9936H51.9467L51.1324 40.0251C51.1067 39.9522 51.081 39.8793 51.048 39.7663C51.015 39.8793 50.9893 39.9522 50.9636 40.0251L50.1419 41.9936Z" fill="#888889"/>
<path d="M54.1001 44.6845V42.9529H54.6577C55.2482 41.8848 55.3987 40.3829 55.3987 39.0268H58.3883V42.9529H58.9789V44.6845H58.2893V43.6382H54.7897V44.6845H54.1001ZM55.4794 42.9529H57.6327V39.7194H56.1396C56.0699 40.8641 55.9159 42.1144 55.4794 42.9529Z" fill="#888889"/>
<path d="M62.2071 39.0248C63.1756 39.0248 63.7992 39.4076 63.7992 40.1914C63.7992 40.7528 63.4617 41.0808 63.0692 41.2048C63.4874 41.3251 63.9826 41.6386 63.9826 42.3567C63.9826 43.403 62.9555 43.6363 62.2181 43.6363H60.2409V39.0248H62.2071ZM62.1301 39.6773H61.0039V40.935L62.2365 40.9423C62.673 40.9423 63.0325 40.7564 63.0325 40.308C63.0288 39.8487 62.684 39.6773 62.1301 39.6773ZM62.2548 41.5766H61.0002V42.9801H62.1484C62.6657 42.9801 63.2159 42.9218 63.2159 42.2802C63.2159 41.6678 62.673 41.5766 62.2548 41.5766Z" fill="#888889"/>
<path d="M67.4677 38.9402C69.1001 38.9402 69.9071 40.114 69.9071 41.3316C69.9071 42.5491 69.1001 43.723 67.4677 43.723C65.8316 43.723 65.0282 42.5491 65.0282 41.3316C65.0246 40.114 65.8279 38.9402 67.4677 38.9402ZM67.4677 39.6437C66.3488 39.6437 65.7949 40.4457 65.7949 41.3316C65.7949 42.2138 66.3452 43.0194 67.4677 43.0194C68.5938 43.0194 69.1368 42.2138 69.1368 41.3316C69.1368 40.4494 68.5938 39.6437 67.4677 39.6437Z" fill="#888889"/>
<path d="M71.2312 43.6382V39.0268H71.9869V40.9515H72.9003L74.1915 39.0268H75.0463L73.5092 41.2723L75.1673 43.6382H74.3126L72.915 41.6405H71.9869V43.6382H71.2312Z" fill="#888889"/>
<path d="M75.703 43.6382L77.6655 39.0268H78.4946L80.4498 43.6382H79.6538L79.2429 42.643H76.9172L76.5064 43.6382H75.703ZM77.174 41.9832H78.9788L78.1644 40.0147C78.1388 39.9418 78.1131 39.8689 78.0801 39.7558C78.0471 39.8689 78.0214 39.9418 77.9957 40.0147L77.174 41.9832Z" fill="#888889"/>
<path d="M84.4007 39.0248V39.7174H82.8673V43.6363H82.1116V39.7174H80.5746V39.0248H84.4007Z" fill="#888889"/>
<path d="M87.5443 38.9402C88.0065 38.9402 88.465 39.0459 88.8649 39.2427V39.9755C88.5384 39.7531 88.1092 39.6328 87.6727 39.6328C86.785 39.6328 85.8642 40.1541 85.8569 41.3717C85.8569 42.5054 86.7996 43.034 87.6874 43.034C88.1642 43.034 88.5971 42.91 88.9016 42.6767V43.4204C88.5091 43.61 88.0469 43.723 87.5553 43.723C86.3558 43.723 85.0829 42.9465 85.0902 41.3717C85.0829 39.7312 86.3228 38.9402 87.5443 38.9402Z" fill="#888889"/>
<path d="M90.237 43.6382V39.0268H90.9927V40.9515H91.9061L93.1973 39.0268H94.052L92.515 41.2723L94.1731 43.6382H93.3184L91.9207 41.6405H90.9927V43.6382H90.237Z" fill="#888889"/>
<path d="M97.1588 38.9402C98.7912 38.9402 99.5982 40.114 99.5982 41.3316C99.5982 42.5491 98.7912 43.723 97.1588 43.723C95.5227 43.723 94.7194 42.5491 94.7194 41.3316C94.7194 40.114 95.519 38.9402 97.1588 38.9402ZM97.1588 39.6437C96.0399 39.6437 95.486 40.4457 95.486 41.3316C95.486 42.2138 96.0363 43.0194 97.1588 43.0194C98.285 43.0194 98.8279 42.2138 98.8279 41.3316C98.8279 40.4494 98.285 39.6437 97.1588 39.6437Z" fill="#888889"/>
<path d="M104.121 39.0248V39.7102H101.682V40.9678H103.923V41.6532H101.682V42.951H104.161V43.6363H100.926V39.0248H104.121Z" fill="#888889"/>
<path d="M109.484 40.8167C110.365 40.8167 111.26 41.0937 111.26 42.2347C111.26 43.3685 110.365 43.6382 109.484 43.6382H107.588V39.0268H110.897V39.7194H108.344V40.8203H109.484V40.8167ZM109.499 42.9529C109.998 42.9529 110.493 42.8654 110.493 42.2347C110.493 41.5968 109.991 41.502 109.499 41.502H108.344V42.9529H109.499Z" fill="#888889"/>
<path d="M116.546 43.7233C115.068 43.7233 114.272 42.75 114.139 41.6819H113.299V43.6395H112.544V39.028H113.299V40.9856H114.139C114.272 39.9102 115.068 38.9442 116.546 38.9442C118.178 38.9442 118.978 40.118 118.978 41.3356C118.978 42.5495 118.178 43.7233 116.546 43.7233ZM116.539 43.0198C117.665 43.0198 118.208 42.2141 118.208 41.3319C118.208 40.4497 117.665 39.6441 116.539 39.6441C115.42 39.6441 114.866 40.4461 114.866 41.3319C114.869 42.2141 115.42 43.0198 116.539 43.0198Z" fill="#888889"/>
<path d="M121.964 39.0248C123.064 39.0248 123.945 39.3675 123.945 40.5413C123.945 41.7151 123.064 42.0578 121.964 42.0578H121.061V43.6399H120.306V39.0285H121.964V39.0248ZM122.004 39.7102H121.061V41.3688H122.004C122.643 41.3688 123.178 41.2121 123.178 40.5377C123.178 39.8706 122.646 39.7102 122.004 39.7102Z" fill="#888889"/>
<path d="M127.349 38.9402C128.981 38.9402 129.788 40.114 129.788 41.3316C129.788 42.5491 128.981 43.723 127.349 43.723C125.713 43.723 124.91 42.5491 124.91 41.3316C124.906 40.114 125.709 38.9402 127.349 38.9402ZM127.349 39.6437C126.23 39.6437 125.676 40.4457 125.676 41.3316C125.676 42.2138 126.227 43.0194 127.349 43.0194C128.475 43.0194 129.018 42.2138 129.018 41.3316C129.018 40.4494 128.475 39.6437 127.349 39.6437Z" fill="#888889"/>
<path d="M142.354 53.7338H143.333V1.90735e-05H142.354V53.7338Z" fill="#B9B9BE"/>
<path d="M197.252 20.4912H199.072C196.482 14.5272 190.381 10.335 183.28 10.335C182.087 10.335 180.925 10.4516 179.802 10.6813L178.614 12.6681C180.085 12.216 181.651 11.9754 183.28 11.9754C189.439 11.9718 194.769 15.4605 197.252 20.4912ZM183.28 41.7623C180.341 41.7623 177.601 40.9712 175.257 39.5969C174.92 40.038 174.564 40.4609 174.175 40.8582C176.812 42.4659 179.938 43.3991 183.28 43.3991C190.381 43.3991 196.482 39.2032 199.072 33.2429H197.252C194.769 38.2736 189.439 41.7623 183.28 41.7623Z" fill="#7E223E"/>
<path d="M193.789 20.491H195.715C193.349 16.1931 188.661 13.2621 183.28 13.2621C181.24 13.2621 179.303 13.6814 177.553 14.4433L175.851 17.2867C177.924 15.7921 180.495 14.9062 183.28 14.9062C187.704 14.9062 191.592 17.1336 193.789 20.491ZM183.28 38.8276C180.903 38.8276 178.676 38.1824 176.787 37.0596C176.556 37.559 176.295 38.0438 176.005 38.5068C178.129 39.7572 180.62 40.4717 183.28 40.4717C188.661 40.4717 193.349 37.5408 195.715 33.2428H193.789C191.592 36.6002 187.704 38.8276 183.28 38.8276Z" fill="#7E223E"/>
<path d="M189.875 20.4896H192.091C190.077 17.905 186.874 16.2245 183.279 16.2245C179.285 16.2245 175.785 18.2951 173.856 21.3755C174.27 21.7728 174.655 22.203 175.011 22.655C176.585 19.8043 179.703 17.8613 183.276 17.8613C185.851 17.8649 188.184 18.8674 189.875 20.4896ZM183.279 35.8661C181.218 35.8661 179.314 35.2209 177.766 34.1272C177.645 34.6959 177.491 35.25 177.3 35.7932C179.024 36.8759 181.075 37.5065 183.279 37.5065C186.882 37.5065 190.081 35.8333 192.091 33.2414H189.875C188.184 34.8636 185.851 35.8661 183.279 35.8661Z" fill="#7E223E"/>
<path d="M186.17 23.954V30.0273H184.861V25.1242H183.184C182.975 27.7088 182.696 30.0966 181.001 30.1039C180.792 30.1039 180.565 30.0784 180.319 29.9909V28.8462C180.433 28.8827 180.565 28.8972 180.737 28.8899C181.768 28.8207 181.819 26.0866 181.977 23.954H186.17Z" fill="#7E223E" stroke="#7E223E" stroke-width="0.2974" stroke-miterlimit="10"/>
<path d="M193.093 23.954V25.0987H190.099V26.3928H192.832V27.5302H190.099V28.8826H193.148V30.0273H188.79V23.954H193.093Z" fill="#7E223E" stroke="#7E223E" stroke-width="0.2974" stroke-miterlimit="10"/>
<path d="M200 23.954V25.1242H198.122V30.0273H196.819V25.1242H194.941V23.954H200Z" fill="#7E223E" stroke="#7E223E" stroke-width="0.2974" stroke-miterlimit="10"/>
<path d="M176.101 31.285C176.101 37.9634 170.474 43.3988 163.566 43.3988C157.774 43.3988 152.767 39.6075 151.395 34.1795C151.377 34.1139 151.358 34.0446 151.347 33.979H153.049C154.311 38.5722 158.607 41.7583 163.566 41.7583C169.568 41.7583 174.45 37.0557 174.45 31.285C174.45 27.7161 172.587 24.4279 169.469 22.4849L168.786 22.0584L174.821 11.9715H157.14L158.115 10.331H177.715L171.02 21.5444C174.216 23.8264 176.101 27.4135 176.101 31.285Z" fill="#7E223E"/>
<path d="M173.038 31.2837C173.038 36.3327 168.786 40.4447 163.566 40.4447C159.513 40.4447 155.911 37.9549 154.601 34.2475C154.572 34.1564 154.539 34.0689 154.513 33.9777H156.259C157.415 36.8759 160.313 38.8043 163.566 38.8043C167.877 38.8043 171.387 35.4286 171.387 31.2837C171.387 27.7695 168.908 24.7621 165.357 23.9564L164.252 23.7085L169.502 14.934H155.371L156.355 13.2935H172.407L166.798 22.6623C170.518 23.9637 173.038 27.3685 173.038 31.2837Z" fill="#7E223E"/>
<path d="M163.566 25.0803C162.891 25.0803 162.238 25.1787 161.629 25.3719L167.08 16.2619H154.575L153.592 17.9024H164.175L158.071 28.1023C158.064 28.1169 158.056 28.1242 158.049 28.1388H160.132C160.998 27.2639 162.216 26.7207 163.566 26.7207C166.189 26.7207 168.324 28.7694 168.324 31.2884C168.324 33.8038 166.189 35.8525 163.566 35.8525C161.989 35.8525 160.595 35.1162 159.725 33.9824H157.807C158.841 36.0603 161.031 37.4966 163.57 37.4966C167.102 37.4966 169.978 34.7115 169.978 31.2884C169.975 27.8654 167.099 25.0803 163.566 25.0803Z" fill="#7E223E"/>
</svg>
