<svg width="183" height="56" viewBox="0 0 183 56" fill="none" xmlns="http://www.w3.org/2000/svg">
<path d="M45.059 6.064C44.046 5.26162 42.9705 4.52192 41.845 3.86162C39.8483 2.68729 37.6848 1.76371 35.4046 1.12012C33.9414 0.706392 32.4324 0.413856 30.8817 0.246692C29.9062 0.138036 28.9141 0.0878906 27.9095 0.0878906C25.5251 0.0878906 23.2074 0.392964 20.998 0.961322C20.9938 0.961322 20.9938 0.961322 20.9938 0.961322C16.3542 2.16908 12.1857 4.547 8.82164 7.76073C8.73827 7.83595 8.66323 7.91535 8.58403 7.99476L8.11298 8.46699C8.02961 8.54221 7.95457 8.62162 7.87954 8.7052C4.67391 12.0819 2.29783 16.2568 1.09729 20.9082L10.6433 11.338C10.9101 11.0622 11.1769 10.7948 11.452 10.5273C15.583 6.5864 21.1189 4.09565 27.2133 3.92431L4.05697 27.1392L0.38446 30.821C0.551203 32.3756 0.843001 33.8885 1.25569 35.3554L4.43631 32.1667L32.2281 4.30461C34.6459 4.74341 36.9303 5.55415 39.0354 6.67833L6.79572 38.9995L3.99027 41.8121C4.64474 42.9404 5.38257 44.0186 6.1871 45.0342L8.90501 42.3052L42.3411 8.78461L45.059 6.064Z" fill="#BAB9BE"/>
<path d="M44.5828 44.9672C40.4351 49.0251 34.8158 51.591 28.6172 51.7666L51.7736 28.5516L55.4461 24.8698C55.2793 23.3152 54.9875 21.8024 54.5748 20.3355L51.3942 23.52L23.5982 51.3863C21.1805 50.9474 18.8878 50.1367 16.791 49.0209L49.0348 16.6955L51.8403 13.883C51.1858 12.7546 50.448 11.6764 49.6434 10.6609L46.9255 13.3857L10.7674 49.6352C11.7804 50.4376 12.8558 51.1773 13.9814 51.8376C15.9781 53.0119 18.1374 53.9355 20.4135 54.5791C21.8766 54.9928 23.3898 55.2854 24.9447 55.4525C25.9201 55.5612 26.9039 55.6113 27.9085 55.6113C30.3013 55.6113 32.6232 55.3063 34.8367 54.7295C39.5847 53.4967 43.8408 51.0352 47.2465 47.7045L47.7176 47.2322C51.0399 43.8179 53.4952 39.551 54.7249 34.791L45.1872 44.3528C44.9913 44.5618 44.7871 44.7666 44.5828 44.9672Z" fill="#7F233F"/>
<path d="M77.2226 3.90771C85.1304 3.90771 93.2132 8.93099 93.2132 19.9805C93.2132 30.725 85.0887 35.3596 77.1392 35.3596C74.1129 35.3596 71.0907 34.6241 68.5812 33.3662V28.3847C70.7405 30.0313 73.5501 30.7668 76.4014 30.7668C81.9748 30.7668 87.5065 28.4725 88.2401 21.8444H73.4167V17.4271H88.1526C87.2897 10.9704 81.9748 8.50473 76.4848 8.50473C73.7627 8.50473 70.6947 9.19846 68.577 10.7155V5.90533C71.1282 4.60145 74.1546 3.90771 77.2226 3.90771Z" fill="#7F233F"/>
<path d="M93.8969 39.3967V30.2946H97.5277C101.375 23.2779 102.367 13.3985 102.367 4.47607H121.855V30.2946H125.703V39.3967H121.209V34.7997H98.3948V39.3967H93.8969ZM102.884 30.2946H116.928V9.02294H107.207C106.728 16.5579 105.736 24.7907 102.884 30.2946Z" fill="#7F233F"/>
<path d="M127.566 34.7996L140.356 4.47607H145.758L158.505 34.7996H153.32L150.639 28.2594H135.47L132.79 34.7996H127.566ZM137.162 23.9256H148.918L143.603 10.9704C143.432 10.494 143.257 10.0176 143.04 9.28204C142.823 10.0176 142.652 10.494 142.477 10.9704L137.162 23.9256Z" fill="#7F233F"/>
<path d="M174.175 3.90771C177.202 3.90771 180.182 4.60144 182.775 5.90114V10.7113C180.657 9.24025 177.848 8.45876 174.996 8.45876C169.206 8.45876 163.199 11.8814 163.158 19.897C163.158 27.3483 169.294 30.8128 175.084 30.8128C178.194 30.8128 181.003 29.9895 182.992 28.4725V33.3662C180.441 34.6241 177.418 35.3596 174.221 35.3596C166.401 35.3596 158.101 30.2486 158.147 19.8928C158.143 9.10652 166.222 3.90771 174.175 3.90771Z" fill="#7F233F"/>
<path d="M68.5937 51.5619L71.345 45.0425H72.508L75.2509 51.5619H74.1379L73.5627 50.1535H70.3028L69.7276 51.5619H68.5937ZM70.6572 49.2258H73.1833L72.0411 46.4425C72.0036 46.338 71.9661 46.2377 71.9202 46.0789C71.8744 46.2377 71.8369 46.338 71.7993 46.4425L70.6572 49.2258Z" fill="#888889"/>
<path d="M76.2055 53.0455V50.5965H76.9851C77.8104 49.0879 78.0272 46.9649 78.0272 45.0425H82.2166V50.5965H83.042V53.0455H82.0749V51.5661H77.1685V53.0455H76.2055ZM78.1398 50.5923H81.1578V46.0162H79.0652C78.9693 47.6419 78.7525 49.4096 78.1398 50.5923Z" fill="#888889"/>
<path d="M87.5732 45.0425C88.928 45.0425 89.8034 45.5816 89.8034 46.6932C89.8034 47.4831 89.3282 47.9511 88.7821 48.1267C89.3657 48.2938 90.066 48.741 90.066 49.7565C90.066 51.2359 88.6237 51.5619 87.5941 51.5619H84.8261V45.0425H87.5732ZM87.4607 45.9619H85.8808V47.7422L87.6108 47.7505C88.2235 47.7505 88.7279 47.4914 88.7279 46.8562C88.7238 46.2043 88.2402 45.9619 87.4607 45.9619ZM87.6399 48.6449H85.885V50.6299H87.494C88.2194 50.6299 88.9906 50.5464 88.9906 49.6437C88.9864 48.7786 88.2235 48.6449 87.6399 48.6449Z" fill="#888889"/>
<path d="M94.9432 44.9214C97.2276 44.9214 98.3615 46.5805 98.3615 48.3023C98.3615 50.0241 97.2276 51.6832 94.9432 51.6832C92.6464 51.6832 91.525 50.0241 91.525 48.3023C91.5208 46.5763 92.6464 44.9214 94.9432 44.9214ZM94.9432 45.916C93.3717 45.916 92.6005 47.0527 92.6005 48.3023C92.6005 49.5518 93.3717 50.6886 94.9432 50.6886C96.5231 50.6886 97.286 49.5518 97.286 48.3023C97.286 47.0527 96.5231 45.916 94.9432 45.916Z" fill="#888889"/>
<path d="M100.221 51.5619V45.0425H101.279V47.7631H102.563L104.377 45.0425H105.577L103.422 48.2186L105.744 51.5619H104.543L102.584 48.741H101.284V51.5619H100.221Z" fill="#888889"/>
<path d="M106.486 51.5619L109.237 45.0425H110.4L113.143 51.5619H112.03L111.455 50.1535H108.195L107.62 51.5619H106.486ZM108.549 49.2258H111.076L109.933 46.4425C109.896 46.338 109.858 46.2377 109.812 46.0789C109.767 46.2377 109.729 46.338 109.692 46.4425L108.549 49.2258Z" fill="#888889"/>
<path d="M118.679 45.0425V46.0204H116.532V51.5619H115.473V46.0204H113.318V45.0425H118.679Z" fill="#888889"/>
<path d="M123.085 44.9214C123.736 44.9214 124.377 45.0718 124.936 45.3518V46.3841C124.482 46.0665 123.877 45.8993 123.264 45.8993C122.018 45.8993 120.73 46.6348 120.717 48.3566C120.717 49.9572 122.039 50.7053 123.281 50.7053C123.952 50.7053 124.553 50.5298 124.982 50.2038V51.2569C124.432 51.5286 123.781 51.6832 123.094 51.6832C121.414 51.6832 119.629 50.5841 119.638 48.3566C119.638 46.0372 121.372 44.9214 123.085 44.9214Z" fill="#888889"/>
<path d="M126.858 51.5619V45.0425H127.917V47.7631H129.2L131.014 45.0425H132.214L130.059 48.2186L132.381 51.5619H131.181L129.221 48.741H127.921V51.5619H126.858Z" fill="#888889"/>
<path d="M136.558 44.9214C138.842 44.9214 139.976 46.5805 139.976 48.3023C139.976 50.0241 138.842 51.6832 136.558 51.6832C134.261 51.6832 133.14 50.0241 133.14 48.3023C133.14 46.5763 134.265 44.9214 136.558 44.9214ZM136.558 45.916C134.986 45.916 134.215 47.0527 134.215 48.3023C134.215 49.5518 134.986 50.6886 136.558 50.6886C138.138 50.6886 138.901 49.5518 138.901 48.3023C138.901 47.0527 138.138 45.916 136.558 45.916Z" fill="#888889"/>
<path d="M146.317 45.0425V46.012H142.898V47.7923H146.037V48.7619H142.898V50.5965H146.375V51.5661H141.84V45.0467H146.317V45.0425Z" fill="#888889"/>
<path d="M153.837 47.575C155.071 47.575 156.325 47.9679 156.325 49.5768C156.325 51.1774 155.071 51.5619 153.837 51.5619H151.177V45.0425H155.813V46.0204H152.236V47.575H153.837ZM153.853 50.5923C154.55 50.5923 155.246 50.4711 155.246 49.5768C155.246 48.6741 154.541 48.5446 153.853 48.5446H152.236V50.5965H153.853V50.5923Z" fill="#888889"/>
<path d="M163.733 51.6832C161.661 51.6832 160.544 50.3041 160.361 48.7954H159.181V51.562H158.122V45.0426H159.181V47.8092H160.361C160.548 46.2921 161.661 44.9214 163.733 44.9214C166.017 44.9214 167.143 46.5805 167.143 48.3023C167.143 50.0241 166.017 51.6832 163.733 51.6832ZM163.725 50.6886C165.304 50.6886 166.067 49.5518 166.067 48.3023C166.067 47.0527 165.304 45.916 163.725 45.916C162.153 45.916 161.382 47.0527 161.382 48.3023C161.382 49.5518 162.153 50.6886 163.725 50.6886Z" fill="#888889"/>
<path d="M171.328 45.0425C172.87 45.0425 174.108 45.5273 174.108 47.1864C174.108 48.8455 172.875 49.3302 171.328 49.3302H170.065V51.5661H169.006V45.0467H171.328V45.0425ZM171.382 46.0079H170.061V48.3565H171.382C172.274 48.3565 173.025 48.135 173.025 47.1822C173.025 46.2335 172.283 46.0079 171.382 46.0079Z" fill="#888889"/>
<path d="M178.873 44.9214C181.157 44.9214 182.291 46.5805 182.291 48.3023C182.291 50.0241 181.157 51.6832 178.873 51.6832C176.576 51.6832 175.455 50.0241 175.455 48.3023C175.451 46.5763 176.576 44.9214 178.873 44.9214ZM178.873 45.916C177.302 45.916 176.53 47.0527 176.53 48.3023C176.53 49.5518 177.302 50.6886 178.873 50.6886C180.453 50.6886 181.216 49.5518 181.216 48.3023C181.216 47.0527 180.453 45.916 178.873 45.916Z" fill="#888889"/>
</svg>
