<svg width="84" height="84" viewBox="0 0 84 84" fill="none" xmlns="http://www.w3.org/2000/svg">
<path d="M55.4776 0H11.9446C10.7326 0 9.75009 0.9825 9.75009 2.889V82.5C9.75009 83.0175 10.7326 84 11.9446 84H72.0556C73.2676 84 74.2501 83.0175 74.2501 82.5V19.467C74.2501 18.423 74.1106 18.087 73.8646 17.8395L56.4106 0.3855C56.1631 0.1395 55.8271 0 55.4776 0Z" fill="#F4F4F4"/>
<path opacity="0.5" d="M56.2502 0.226562V18.0001H74.0237L56.2502 0.226562Z" fill="#9C9C9C"/>
<path d="M29.2709 49.9873C28.7489 49.9873 28.2479 49.8178 27.8204 49.4983C26.2589 48.3268 26.0489 47.0233 26.1479 46.1353C26.4209 43.6933 29.4404 41.1373 35.1254 38.5333C37.3814 33.5893 39.5279 27.4978 40.8074 22.4083C39.3104 19.1503 37.8554 14.9233 38.9159 12.4438C39.2879 11.5753 39.7514 10.9093 40.6169 10.6213C40.9589 10.5073 41.8229 10.3633 42.1409 10.3633C42.8969 10.3633 43.5614 11.3368 44.0324 11.9368C44.4749 12.5008 45.4784 13.6963 43.4729 22.1398C45.4949 26.3158 48.3599 30.5698 51.1049 33.4828C53.0714 33.1273 54.7634 32.9458 56.1419 32.9458C58.4909 32.9458 59.9144 33.4933 60.4949 34.6213C60.9749 35.5543 60.7784 36.6448 59.9099 37.8613C59.0744 39.0298 57.9224 39.6478 56.5799 39.6478C54.7559 39.6478 52.6319 38.4958 50.2634 36.2203C46.0079 37.1098 41.0384 38.6968 37.0214 40.4533C35.7674 43.1143 34.5659 45.2578 33.4469 46.8298C31.9094 48.9823 30.5834 49.9873 29.2709 49.9873ZM33.2639 42.2983C30.0584 44.0998 28.7519 45.5803 28.6574 46.4143C28.6424 46.5523 28.6019 46.9153 29.3039 47.4523C29.5274 47.3818 30.8324 46.7863 33.2639 42.2983ZM53.7194 35.6353C54.9419 36.5758 55.2404 37.0513 56.0399 37.0513C56.3909 37.0513 57.3914 37.0363 57.8549 36.3898C58.0784 36.0763 58.1654 35.8753 58.1999 35.7673C58.0154 35.6698 57.7709 35.4718 56.4374 35.4718C55.6799 35.4733 54.7274 35.5063 53.7194 35.6353ZM42.5144 25.7623C41.4419 29.4733 40.0259 33.4798 38.5034 37.1083C41.6384 35.8918 45.0464 34.8298 48.2474 34.0783C46.2224 31.7263 44.1989 28.7893 42.5144 25.7623ZM41.6039 13.0693C41.4569 13.1188 39.6089 15.7048 41.7479 17.8933C43.1714 14.7208 41.6684 13.0483 41.6039 13.0693Z" fill="#7F233F"/>
<path d="M72.0556 84H11.9446C10.7326 84 9.75009 83.0175 9.75009 81.8055V58.5H74.2501V81.8055C74.2501 83.0175 73.2676 84 72.0556 84Z" fill="#7F233F"/>
<path d="M26.0777 79.5007H23.6162V64.3867H27.9632C28.6052 64.3867 29.2412 64.4887 29.8697 64.6942C30.4982 64.8997 31.0622 65.2072 31.5617 65.6167C32.0612 66.0262 32.4647 66.5227 32.7722 67.1032C33.0797 67.6837 33.2342 68.3362 33.2342 69.0622C33.2342 69.8287 33.1037 70.5217 32.8442 71.1442C32.5847 71.7667 32.2217 72.2902 31.7567 72.7132C31.2917 73.1362 30.7307 73.4647 30.0752 73.6972C29.4197 73.9297 28.6937 74.0452 27.9017 74.0452H26.0762V79.5007H26.0777ZM26.0777 66.2527V72.2407H28.3337C28.6337 72.2407 28.9307 72.1897 29.2262 72.0862C29.5202 71.9842 29.7902 71.8162 30.0362 71.5837C30.2822 71.3512 30.4802 71.0272 30.6302 70.6102C30.7802 70.1932 30.8552 69.6772 30.8552 69.0622C30.8552 68.8162 30.8207 68.5312 30.7532 68.2117C30.6842 67.8907 30.5447 67.5832 30.3332 67.2892C30.1202 66.9952 29.8232 66.7492 29.4407 66.5512C29.0582 66.3532 28.5512 66.2542 27.9227 66.2542H26.0777V66.2527Z" fill="white"/>
<path d="M48.3285 71.5237C48.3285 72.7672 48.195 73.8307 47.928 74.7127C47.661 75.5947 47.3235 76.3327 46.9125 76.9282C46.5015 77.5237 46.041 77.9917 45.528 78.3337C45.015 78.6757 44.52 78.9307 44.0415 79.1032C43.563 79.2742 43.125 79.3837 42.729 79.4317C42.333 79.4767 42.039 79.5007 41.847 79.5007H36.126V64.3867H40.6785C41.9505 64.3867 43.068 64.5892 44.031 64.9912C44.994 65.3932 45.795 65.9317 46.431 66.6007C47.067 67.2697 47.541 68.0332 47.856 68.8867C48.171 69.7417 48.3285 70.6207 48.3285 71.5237ZM41.028 77.6962C42.696 77.6962 43.899 77.1637 44.637 76.0972C45.375 75.0307 45.744 73.4857 45.744 71.4622C45.744 70.8337 45.669 70.2112 45.519 69.5962C45.3675 68.9812 45.078 68.4247 44.6475 67.9252C44.217 67.4257 43.632 67.0222 42.894 66.7147C42.156 66.4072 41.199 66.2527 40.023 66.2527H38.5875V77.6962H41.028Z" fill="white"/>
<path d="M54.3989 66.2527V71.0107H60.7154V72.6922H54.3989V79.5007H51.8969V64.3867H61.3499V66.2527H54.3989Z" fill="white"/>
</svg>
