<svg width="986" height="104" viewBox="0 0 986 104" fill="none" xmlns="http://www.w3.org/2000/svg">
<path d="M22.2 85.8L22.2 21.6L53.4 21.6L53.4 85.8H75.6L75.6 1.8L0 1.8L0 85.8H22.2Z" fill="#F4F4F4"/>
<path d="M103.406 1.8L103.406 85.8H125.606V59.4H136.646C157.406 59.28 173.246 52.68 173.246 30.6C173.246 8.52 157.406 1.8 136.646 1.8L103.406 1.8ZM150.446 30.6C150.446 38.16 144.446 40.2 137.726 40.2H125.606V21H137.726C144.446 21 150.446 23.04 150.446 30.6Z" fill="#F4F4F4"/>
<path d="M195.797 1.8V85.8L256.997 85.8V66.6L217.997 66.6V52.92L252.677 52.92V33.84L217.997 33.84V21L256.277 21V1.8L195.797 1.8Z" fill="#F4F4F4"/>
<path d="M276.842 45C276.842 75 299.762 87.6 322.802 87.6C331.682 87.6 339.962 85.8 347.282 82.32V60.72C342.482 65.4 334.562 68.04 325.922 68.04C312.842 68.04 299.642 61.32 299.642 45C299.642 26.76 312.842 19.44 326.162 19.44C333.842 19.44 341.522 21.96 346.682 26.28V5.28C339.362 1.8 330.842 0 322.322 0C299.642 0 276.842 13.32 276.842 45Z" fill="#F4F4F4"/>
<path d="M366.889 45C366.889 75 389.809 87.6 412.849 87.6C421.729 87.6 430.009 85.8 437.329 82.32V60.72C432.529 65.4 424.609 68.04 415.969 68.04C402.889 68.04 389.689 61.32 389.689 45C389.689 26.76 402.889 19.44 416.209 19.44C423.889 19.44 431.569 21.96 436.729 26.28V5.28C429.409 1.8 420.889 0 412.369 0C389.689 0 366.889 13.32 366.889 45Z" fill="#F4F4F4"/>
<path d="M459.922 48.48V65.28L505.522 65.28V48.48L459.922 48.48Z" fill="#F4F4F4"/>
<path d="M618.127 103.2V66H607.327V1.8L585.127 1.8V66L553.927 66V1.8L531.727 1.8V85.8L598.927 85.8V103.2H618.127Z" fill="#F4F4F4"/>
<path d="M641.461 1.8V85.8L702.661 85.8V66.6H663.661V52.92L698.341 52.92V33.84L663.661 33.84V21L701.941 21V1.8L641.461 1.8Z" fill="#F4F4F4"/>
<path d="M780.923 1.8V33.96L749.723 33.96V1.8L727.523 1.8V85.8H749.723V53.76L780.923 53.76V85.8H803.123V1.8L780.923 1.8Z" fill="#F4F4F4"/>
<path d="M824.57 1.8V21.6L848.33 21.6V85.8H870.53V21.6L894.17 21.6V1.8L824.57 1.8Z" fill="#F4F4F4"/>
<path d="M915.703 1.8V85.8L937.903 85.8V59.4H948.943C969.703 59.28 985.543 52.68 985.543 30.6C985.543 8.52 969.703 1.8 948.943 1.8L915.703 1.8ZM962.743 30.6C962.743 38.16 956.743 40.2 950.023 40.2L937.903 40.2V21L950.023 21C956.743 21 962.743 23.04 962.743 30.6Z" fill="#F4F4F4"/>
</svg>
