<svg width="88" height="419" viewBox="0 0 88 419" fill="none" xmlns="http://www.w3.org/2000/svg">
<path d="M43.8 418.795C67.2 418.795 87.6 403.795 87.6 373.795C87.6 343.795 67.2 328.795 43.8 328.795C20.4 328.795 -3.27835e-06 343.795 -1.96701e-06 373.795C-6.55671e-07 403.795 20.4 418.795 43.8 418.795ZM43.8 351.595C57.24 351.595 67.2 359.275 67.2 373.795C67.2 388.315 57.24 395.995 43.8 395.995C30.36 395.995 20.4 388.315 20.4 373.795C20.4 359.275 30.36 351.595 43.8 351.595Z" fill="#F4F4F4"/>
<path d="M1.79999 214.852L33.96 214.852L33.96 246.052L1.79999 246.052L1.79999 268.252L85.8 268.252L85.8 246.052L53.76 246.052L53.76 214.852L85.8 214.852L85.8 192.652L1.79999 192.652L1.79999 214.852Z" fill="#F4F4F4"/>
<path d="M85.8 149.845L72.6 145.045L72.6 110.245L85.8 105.445L85.8 82.6454L1.79998 115.645L1.79999 139.645L85.8 172.645L85.8 149.845ZM30.36 129.805C28.32 129.085 26.28 128.365 21.84 127.645C26.28 126.925 28.32 126.205 30.36 125.485L54.6 116.845L54.6 138.445L30.36 129.805Z" fill="#F4F4F4"/>
<path d="M45 70.7926C75 70.7926 87.6 47.8726 87.6 24.8326C87.6 15.9526 85.8 7.67257 82.32 0.352566L60.72 0.352567C65.4 5.15255 68.04 13.0726 68.04 21.7126C68.04 34.7926 61.32 47.9926 45 47.9926C26.76 47.9926 19.44 34.7926 19.44 21.4726C19.44 13.7926 21.96 6.11261 26.28 0.952605L5.27998 0.952606C1.79998 8.27261 -1.75721e-05 16.7926 -1.71997e-05 25.3126C-1.62083e-05 47.9926 13.32 70.7926 45 70.7926Z" fill="#F4F4F4"/>
</svg>
