<svg width="84" height="738" viewBox="0 0 84 738" fill="none" xmlns="http://www.w3.org/2000/svg">
<path d="M2.3125 718.555L42.3906 718.555L2.3125 687.734L2.3125 666.172L37.8203 694.121L82 664.941L82 686.855L51.4727 706.191L67.1172 718.555L82 718.555L82 737.129L2.3125 737.129L2.3125 718.555ZM42.0391 646.262C36.2187 646.262 30.7891 645.129 25.75 642.863C20.6719 640.559 16.2578 637.453 12.5078 633.547C8.71874 629.602 5.74999 624.992 3.60156 619.719C1.41406 614.406 0.320306 608.742 0.320306 602.727C0.320305 596.711 1.41406 591.066 3.60155 585.793C5.74999 580.48 8.71874 575.852 12.5078 571.906C16.2578 567.961 20.6719 564.855 25.75 562.59C30.7891 560.285 36.2187 559.133 42.0391 559.133C47.8203 559.133 53.25 560.285 58.3281 562.59C63.4062 564.855 67.8398 567.961 71.6289 571.906C75.3789 575.852 78.3476 580.48 80.5351 585.793C82.7226 591.066 83.8164 596.711 83.8164 602.727C83.8164 608.742 82.7226 614.406 80.5352 619.719C78.3477 624.992 75.3789 629.602 71.6289 633.547C67.8398 637.453 63.4062 640.559 58.3281 642.863C53.25 645.129 47.8203 646.262 42.0391 646.262ZM42.0977 627.746C45.7695 627.746 49.1875 627.102 52.3516 625.812C55.4766 624.484 58.1914 622.687 60.4961 620.422C62.8008 618.156 64.6172 615.5 65.9453 612.453C67.2344 609.406 67.8789 606.164 67.8789 602.727C67.8789 599.211 67.2344 595.93 65.9453 592.883C64.6172 589.836 62.8008 587.199 60.4961 584.973C58.1914 582.707 55.4766 580.93 52.3516 579.641C49.1875 578.312 45.7695 577.648 42.0976 577.648C38.4258 577.648 35.0273 578.312 31.9023 579.641C28.7383 580.93 26.0039 582.707 23.6992 584.973C21.3945 587.199 19.5976 589.836 18.3086 592.883C16.9805 595.93 16.3164 599.211 16.3164 602.727C16.3164 606.164 16.9805 609.406 18.3086 612.453C19.5976 615.5 21.3945 618.156 23.6992 620.422C26.0039 622.687 28.7383 624.484 31.9023 625.812C35.0273 627.102 38.4258 627.746 42.0977 627.746ZM82 533.363L2.31249 533.363L2.31249 514.789L34.5976 514.789L34.5976 480.043L2.31249 480.043L2.31249 461.41L82 461.41L82 480.043L50.5351 480.043L50.5351 514.789L82 514.789L82 533.363ZM82 416.07L18.25 416.07L18.25 438.336L2.31249 438.336L2.31248 375.289L18.25 375.289L18.25 397.555L82 397.555L82 416.07ZM26.8633 327.547L29.4414 328.133L53.5234 337.801L53.5234 317.176L29.4414 326.844L26.8633 327.43L26.8633 327.547ZM82 286.121L82 305.691L69.3437 310.789L69.3437 344.187L82 349.227L82 368.855L2.25389 336.219L2.25389 318.758L82 286.121ZM2.31248 245.703L42.3906 245.703L2.31248 214.883L2.31248 193.32L37.8203 221.27L82 192.09L82 214.004L51.4726 233.34L67.1172 245.703L82 245.703L82 264.277L2.31248 264.277L2.31248 245.703ZM82 153.781L18.25 153.781L18.25 176.047L2.31247 176.047L2.31247 113L18.25 113L18.25 135.266L82 135.266L82 153.781ZM42.6836 56.293L42.6836 71.3516L66.0625 71.3516L66.0625 56.293C66.0625 54.7695 65.75 53.3437 65.125 52.0156C64.5 50.6875 63.6601 49.5352 62.6054 48.5586C61.5117 47.543 60.2617 46.7617 58.8554 46.2148C57.4101 45.6289 55.8867 45.3359 54.2851 45.3359C52.6445 45.3359 51.1211 45.6289 49.7148 46.2148C48.3086 46.7617 47.0976 47.543 46.082 48.5586C45.0273 49.5352 44.207 50.6875 43.6211 52.0156C42.9961 53.3437 42.6836 54.7695 42.6836 56.293ZM26.7461 55.2383C26.7461 51.0977 27.4297 47.2891 28.7968 43.8125C30.125 40.2969 32 37.2891 34.4218 34.7891C36.8437 32.25 39.7539 30.2773 43.1523 28.8711C46.5117 27.4648 50.2226 26.7617 54.2851 26.7617C58.3086 26.7617 62.0195 27.4844 65.4179 28.9297C68.7773 30.3359 71.6875 32.3086 74.1484 34.8477C76.6093 37.3867 78.5429 40.4336 79.9492 43.9883C81.3164 47.5039 82 51.3516 82 55.5312L82 89.9258L2.31247 89.9258L2.31247 71.3516L26.7461 71.3516L26.7461 55.2383ZM82 19.5547L2.31247 19.5547L2.31247 0.980467L82 0.980464L82 19.5547Z" fill="#F4F4F4"/>
</svg>
