<svg width="75" height="620" viewBox="0 0 75 620" fill="none" xmlns="http://www.w3.org/2000/svg">
<path d="M1.54109 620L73.4589 620L73.4589 600.975L50.8562 600.975L50.8562 591.513C50.7534 573.722 45.1028 560.147 26.1986 560.147C7.29452 560.147 1.54109 573.722 1.54109 591.513L1.54109 620ZM26.1986 579.687C32.6712 579.687 34.4178 584.829 34.4178 590.588L34.4178 600.975L17.9795 600.975L17.9795 590.588C17.9795 584.829 19.726 579.687 26.1986 579.687Z" fill="#F4F4F4"/>
<path d="M73.4589 521.997L50.0343 521.997L50.0343 513.77L73.4589 496.596L73.4589 475.102L47.363 494.95C44.1781 487.031 37.7055 481.17 25.7877 481.17C6.78082 481.17 1.54109 496.081 1.54109 510.685L1.54109 541.022L73.4589 541.022L73.4589 521.997ZM17.9795 521.997L17.9795 509.862C17.9795 504.411 20.7534 500.709 26.3014 500.709C31.8493 500.709 34.6233 504.411 34.6233 509.862L34.6233 521.997L17.9795 521.997Z" fill="#F4F4F4"/>
<path d="M37.5 462.43C57.5343 462.43 75 449.575 75 423.865C75 398.155 57.5343 385.301 37.5 385.301C17.4658 385.301 -9.69713e-06 398.155 -8.57332e-06 423.865C-7.4495e-06 449.575 17.4658 462.43 37.5 462.43ZM37.5 404.84C49.0069 404.84 57.5343 411.422 57.5343 423.865C57.5343 436.309 49.0069 442.891 37.5 442.891C25.9932 442.891 17.4658 436.309 17.4658 423.865C17.4658 411.422 25.9932 404.84 37.5 404.84Z" fill="#F4F4F4"/>
<path d="M1.54108 336.475L73.4589 336.475L73.4589 305.211C73.4589 291.534 69.4521 275.902 53.1164 275.902C43.1507 275.902 37.6027 281.764 35.3425 289.477C32.8767 282.587 27.637 278.782 19.726 278.782C7.2945 278.782 1.54108 288.243 1.54108 303.977L1.54108 336.475ZM51.0616 295.03C56.7123 295.03 58.5617 298.835 58.5617 304.594L58.5617 317.552L43.5617 317.552L43.5617 304.594C43.5617 298.835 45.411 295.03 51.0616 295.03ZM23.1164 297.807C27.226 297.807 29.7945 300.686 29.7945 305.726L29.6918 317.449L16.4384 317.449L16.4384 305.726C16.4384 300.686 19.0068 297.807 23.1164 297.807Z" fill="#F4F4F4"/>
<path d="M37.5 259.49C57.5343 259.49 75 246.635 75 220.925C75 195.215 57.5343 182.36 37.5 182.36C17.4657 182.36 -1.7323e-05 195.215 -1.61992e-05 220.925C-1.50754e-05 246.635 17.4657 259.49 37.5 259.49ZM37.5 201.899C49.0069 201.899 57.5342 208.481 57.5342 220.925C57.5342 233.368 49.0069 239.95 37.5 239.95C25.9931 239.95 17.4657 233.368 17.4657 220.925C17.4657 208.481 25.9931 201.899 37.5 201.899Z" fill="#F4F4F4"/>
<path d="M73.4589 143.124L44.0753 143.124C40.1712 143.124 35.6507 143.227 32.2603 143.535L73.4589 115.357L73.4589 97.3603L1.54107 97.3603L1.54107 116.386L30.9246 116.386C34.9315 116.386 39.4521 116.283 42.8425 115.974L1.54107 144.152L1.54107 162.149L73.4589 162.149L73.4589 143.124Z" fill="#F4F4F4"/>
<path d="M37.5 77.1298C57.5342 77.1298 75 64.2748 75 38.5649C75 12.8549 57.5342 -2.5149e-06 37.5 -1.63918e-06C17.4657 -7.63453e-07 -2.52942e-05 12.8549 -2.41704e-05 38.5649C-2.30466e-05 64.2748 17.4657 77.1298 37.5 77.1298ZM37.5 19.5395C49.0068 19.5395 57.5342 26.1213 57.5342 38.5649C57.5342 51.0085 49.0068 57.5903 37.5 57.5903C25.9931 57.5903 17.4657 51.0085 17.4657 38.5649C17.4657 26.1213 25.9931 19.5395 37.5 19.5395Z" fill="#F4F4F4"/>
</svg>
